#!OML:ASF X:\für Bonn\!DataBase\2005_08_12_Daniel\c3d\Daniel.ASF
:FULLY-SPECIFIED
:DEGREES
16
root -20.2863 17.2942 0.0866636 -40.469 84.3992 -406.635
lowerback 32.0693 -2.26676 2.95836
upperback 11.9778 -0.876083 -1.60073
thorax -3.96638 0.188541 -3.232
lowerneck 3.93641 2.39417 -7.64528
upperneck 3.41648 2.97106 -0.256089
head 0.291985 1.41997 1.16542
rclavicle -7.95139e-015 -4.25399e-014
rhumerus -56.9717 -4.67368 -79.8154
rradius 13.2507
rwrist 36.3281
rhand -14.195 16.4961
rfingers 7.12502
rthumb 11.941 -13.1434
lclavicle -7.95139e-015 -4.25399e-014
lhumerus -59.8641 15.1229 59.1531
lradius 15.9866
lwrist -49.6741
lhand -5.22275 -13.3613
lfingers 7.12502
lthumb 20.5794 15.5679
rfemur -37.6747 -4.41589 26.5727
rtibia 60.6163
rfoot -6.72151 0.320767
rtoes -10.347
lfemur -40.0326 2.2334 -14.1926
ltibia 59.9256
lfoot -16.5073 -6.10444
ltoes -9.52577
17
root -20.164 17.3706 0.0967015 -42.1458 84.5948 -408.665
lowerback 31.553 -2.3092 2.95583
upperback 12.2009 -0.927643 -1.57744
thorax -3.48805 0.179908 -3.18301
lowerneck 4.19874 2.4089 -7.81626
upperneck 3.24501 2.94951 0.00565363
head 0.188631 1.41214 1.27438
rclavicle 7.95139e-016 -1.98785e-014
rhumerus -58.6234 -4.01994 -80.1558
rradius 13.6913
rwrist 35.0449
rhand -13.3276 17.171
rfingers 7.12502
rthumb 12.7774 -12.418
lclavicle 7.95139e-016 -1.98785e-014
lhumerus -61.4548 14.6331 58.7946
lradius 16.3245
lwrist -50.1296
lhand -4.82474 -13.5694
lfingers 7.12502
lthumb 20.9618 15.3179
rfemur -37.5793 -4.42491 26.5365
rtibia 60.2093
rfoot -6.0188 -0.120361
rtoes -9.798
lfemur -39.7118 2.21879 -14.2471
ltibia 59.3517
lfoot -16.0765 -6.20078
ltoes -9.9008
18
root -20.0495 17.4372 0.102968 -43.4618 84.7021 -410.355
lowerback 31.0877 -2.34033 2.98781
upperback 12.3943 -0.958535 -1.56686
thorax -3.06457 0.179774 -3.17644
lowerneck 4.47752 2.42978 -8.01851
upperneck 2.98549 2.93003 0.286009
head 0.0535687 1.4066 1.39493
rclavicle -2.54444e-014 -9.54166e-015
rhumerus -60.2305 -3.26417 -80.6754
rradius 14.2357
rwrist 33.5678
rhand -12.5726 17.8436
rfingers 7.12502
rthumb 13.5052 -11.6985
lclavicle -2.54444e-014 -9.54166e-015
lhumerus -62.9529 13.8078 59.0446
lradius 16.8674
lwrist -49.919
lhand -4.59086 -13.6442
lfingers 7.12502
lthumb 21.1865 15.2181
rfemur -37.5561 -4.30119 26.5323
rtibia 59.8069
rfoot -5.38064 -0.54502
rtoes -9.48295
lfemur -39.5074 2.26539 -14.2805
ltibia 58.9065
lfoot -15.6732 -6.25414
ltoes -10.1593
19
root -19.9364 17.4939 0.108312 -44.5362 84.7808 -411.84
lowerback 30.6233 -2.35207 3.02175
upperback 12.5683 -0.967711 -1.55137
thorax -2.66152 0.188372 -3.17321
lowerneck 4.71527 2.44411 -8.20514
upperneck 2.64048 2.90382 0.551562
head -0.101432 1.39917 1.50927
rclavicle -2.3059e-014 -1.55052e-014
rhumerus -61.749 -2.87583 -80.8167
rradius 14.763
rwrist 32.4823
rhand -12.0552 18.4567
rfingers 7.12502
rthumb 14.0038 -11.0516
lclavicle -2.3059e-014 -1.55052e-014
lhumerus -64.37 12.7071 59.9253
lradius 17.6089
lwrist -48.8475
lhand -4.44616 -13.479
lfingers 7.12502
lthumb 21.3255 15.3676
rfemur -37.5586 -4.08583 26.5192
rtibia 59.3455
rfoot -4.81829 -0.950315
rtoes -9.10384
lfemur -39.4233 2.31185 -14.3169
ltibia 58.5993
lfoot -15.3203 -6.24581
ltoes -10.4629
20
root -19.8255 17.539 0.112378 -45.9052 84.8495 -413.648
lowerback 30.2072 -2.38207 3.10773
upperback 12.6965 -0.989282 -1.53324
thorax -2.33291 0.189073 -3.19394
lowerneck 4.88582 2.45086 -8.43792
upperneck 2.28209 2.87146 0.857323
head -0.251488 1.38783 1.6469
rclavicle 6.36111e-015 9.93923e-015
rhumerus -63.1871 -2.50533 -81.0083
rradius 15.2572
rwrist 31.2014
rhand -11.7434 18.8716
rfingers 7.12502
rthumb 14.3043 -10.6157
lclavicle 6.36111e-015 9.93923e-015
lhumerus -65.813 11.5326 61.1383
lradius 18.4977
lwrist -46.8815
lhand -4.35101 -13.3074
lfingers 7.12502
lthumb 21.4169 15.5288
rfemur -37.5977 -3.89141 26.54
rtibia 58.8294
rfoot -4.3541 -1.28243
rtoes -8.83405
lfemur -39.474 2.35482 -14.346
ltibia 58.4231
lfoot -15 -6.2033
ltoes -10.7563
